<?xml version="1.0" standalone="no"?>
<!DOCTYPE svg PUBLIC "-//W3C//DTD SVG 20010904//EN"
 "http://www.w3.org/TR/2001/REC-SVG-20010904/DTD/svg10.dtd">
<svg version="1.0" xmlns="http://www.w3.org/2000/svg"
 width="198.000000pt" height="198.000000pt" viewBox="0 0 198.000000 198.000000"
 preserveAspectRatio="xMidYMid meet">
<metadata>
Created by potrace 1.11, written by Peter Selinger 2001-2013
</metadata>
<g transform="translate(0.000000,198.000000) scale(0.100000,-0.100000)"
fill="#000000" stroke="none">
<path d="M5 1972 c-3 -3 -5 -68 -5 -144 0 -124 2 -138 18 -139 111 -8 186 4
206 32 18 27 13 89 -10 106 -13 9 -14 16 -6 25 6 8 13 26 16 42 6 35 -31 76
-71 77 -15 1 -54 2 -85 3 -32 2 -60 0 -63 -2z m134 -57 c15 -9 14 -42 -2 -48
-6 -2 -23 -4 -37 -3 -19 1 -25 7 -26 26 0 14 1 28 3 31 3 8 48 3 62 -6z m19
-138 c3 -21 -2 -29 -19 -35 -42 -16 -64 -4 -65 34 0 35 0 35 40 32 36 -3 41
-6 44 -31z"/>
<path d="M302 1833 c0 -79 5 -143 9 -144 5 -1 18 -1 29 -1 36 0 39 2 38 30 -1
73 1 81 25 77 25 -5 43 -25 63 -72 8 -18 20 -33 27 -34 6 0 19 -2 28 -4 35 -6
39 10 14 61 -13 28 -31 56 -39 63 -12 10 -11 15 10 36 13 13 24 36 24 50 0 34
-41 75 -77 76 -15 1 -56 2 -90 3 l-62 1 1 -142z m143 52 c0 -26 -4 -30 -29
-33 -33 -4 -45 9 -38 44 4 21 9 25 36 22 27 -3 31 -7 31 -33z"/>
<path d="M674 1971 c-32 -14 -72 -68 -80 -106 -26 -139 112 -231 236 -158 76
45 78 191 3 247 -28 21 -125 31 -159 17z m119 -72 c17 -21 23 -91 11 -124 -4
-10 -21 -23 -38 -30 -64 -27 -108 30 -92 120 12 62 79 81 119 34z"/>
<path d="M1015 1966 c-55 -25 -78 -60 -82 -124 -7 -95 41 -149 139 -158 67 -6
103 11 103 49 1 21 -3 26 -15 21 -89 -37 -153 -6 -152 75 1 84 67 121 144 80
10 -5 18 -8 19 -7 8 30 6 48 -6 58 -22 18 -116 22 -150 6z"/>
<path d="M1239 1971 c-7 -48 -2 -281 6 -282 6 -1 17 -2 25 -3 35 -4 46 12 43
58 -2 25 0 46 4 46 4 0 31 -23 60 -52 45 -44 58 -52 93 -53 22 -1 40 1 40 4 0
3 -32 38 -71 78 l-72 71 69 66 c38 36 65 66 59 67 -73 6 -74 6 -122 -43 -26
-26 -51 -48 -55 -48 -4 0 -7 18 -5 41 2 22 -1 43 -6 46 -14 8 -67 12 -68 4z"/>
<path d="M1559 1975 c-1 0 -2 -22 -3 -48 -2 -56 6 -66 54 -65 19 0 49 0 65 -1
l30 -1 1 -68 c1 -114 50 -177 136 -174 105 4 137 60 138 238 l0 120 -210 0
c-115 0 -210 0 -211 -1z m334 -114 c12 -2 8 -86 -6 -104 -16 -23 -58 -29 -80
-13 -11 9 -20 33 -24 64 -5 47 -4 50 18 54 20 2 59 2 92 -1z"/>
<path d="M1559 1531 c-1 -3 -2 -71 -2 -149 -2 -143 1 -159 33 -156 8 1 23 2
32 3 15 1 18 15 20 98 l3 98 43 0 c23 0 43 -3 43 -7 1 -5 2 -45 3 -90 l1 -82
40 -1 40 0 5 90 5 90 36 1 36 1 1 -81 c0 -45 1 -89 1 -98 1 -14 10 -18 41 -18
l40 0 0 153 0 154 -210 0 c-115 0 -210 -2 -211 -6z"/>
<path d="M1558 1123 c-7 -12 -2 -173 6 -225 12 -82 58 -143 125 -170 38 -15
136 -11 170 6 91 47 113 96 119 263 l5 132 -211 1 c-116 0 -212 -3 -214 -7z
m326 -112 c16 -1 17 -7 12 -52 -11 -86 -41 -118 -117 -124 -81 -6 -128 36
-136 122 l-5 59 113 -2 c63 -1 122 -2 133 -3z"/>
<path d="M1559 618 c0 -7 -2 -30 -4 -51 -1 -20 2 -40 8 -44 6 -4 103 -7 214
-7 l203 -1 0 58 0 57 -210 0 c-161 0 -210 -3 -211 -12z"/>
<path d="M1557 452 c-2 -4 -3 -29 -2 -55 2 -50 14 -67 48 -67 23 0 29 -19 31
-98 2 -81 -5 -98 -44 -107 -16 -4 -30 -10 -31 -13 -4 -30 -4 -84 1 -96 5 -15
2 -16 303 101 l117 45 0 68 0 68 -107 40 c-60 22 -154 58 -210 80 -57 22 -104
37 -106 34z m288 -212 l30 -12 -79 -29 c-44 -16 -81 -29 -82 -29 -1 0 -2 27
-3 59 l-1 60 53 -19 c28 -10 66 -23 82 -30z"/>
</g>
</svg>
